<svg width="90" height="90" viewBox="0 0 90 90" fill="none" xmlns="http://www.w3.org/2000/svg">
<path fill-rule="evenodd" clip-rule="evenodd" d="M10.7081 0.322149C10.5223 0.589182 10.2859 0.673995 9.58429 0.725347C9.05952 0.763613 8.29927 0.970513 7.72666 1.23075C6.89865 1.60728 6.6702 1.79679 6.15857 2.53229C4.73063 4.58457 2.48147 12.9234 1.66313 19.1996C1.49589 20.4823 1.39965 20.8525 1.14309 21.2014C0.795926 21.6735 0.782211 21.7249 0.527604 23.5066C0.354255 24.7194 0.318638 25.0175 0.102989 27.0682C-0.0354371 28.3841 -0.0340536 31.19 0.105525 32.3051C0.168917 32.8115 0.530253 34.0864 0.941151 35.2533C1.68215 37.3575 2.10538 38.1106 3.64927 40.0719C4.27628 40.8686 4.38012 41.2723 4.54391 43.5507C4.57987 44.0518 4.65675 45.0581 4.71472 45.787C4.77258 46.5158 4.87574 47.8164 4.94397 48.677C5.0122 49.5375 5.12331 50.7302 5.19086 51.3274C5.2584 51.9246 5.3302 52.7485 5.35026 53.1585C5.38576 53.8834 6.13644 57.9926 6.96941 62.021C7.53626 64.7624 8.35056 67.5738 9.67995 71.3787C11.0852 75.4006 11.5188 76.7571 12.1692 79.1661C12.927 81.9724 13.3172 82.6448 14.1876 82.6448C14.81 82.6448 15.2441 81.8135 15.6622 79.8216C16.332 76.6298 16.9542 74.4267 18.5842 69.4754C19.4807 66.7515 19.626 66.3455 20.717 63.5119C23.196 57.0734 26.0026 51.4891 29.5214 45.993C30.5575 44.3748 32.855 41.8171 33.7641 41.2699C34.3073 40.9429 35.7518 41.0664 36.059 41.4659C36.2911 41.7677 36.4631 41.6022 36.3516 41.1845C36.1015 40.2477 34.1224 40.1115 32.9352 40.9494C30.5652 42.6222 26.3895 48.2747 22.9983 54.4009C19.6565 60.438 16.9191 66.3733 14.7941 72.1903C14.3446 73.4207 13.928 74.4508 13.8685 74.4792C13.5901 74.6126 10.8762 66.7558 9.96556 63.1805C9.06816 59.6574 8.1507 54.3817 7.82475 50.8707C7.64402 48.9241 7.73992 44.8487 7.98634 44.0009C8.196 43.28 8.33477 43.1695 9.82126 42.5395C12.6979 41.3205 15.6019 38.489 17.3472 35.2021C17.6907 34.555 18.3875 33.2802 18.8957 32.3691C21.2027 28.2327 21.2527 28.1187 21.1731 27.1826C21.1284 26.6575 21.2213 26.3371 21.831 24.9147C22.5381 23.2649 24.6039 17.399 25.17 15.4335C25.7026 13.5842 25.9194 11.8678 25.8871 9.75742C25.8391 6.63651 25.2825 5.17611 23.7103 4.0457C23.2643 3.72499 22.8298 3.4626 22.7449 3.4626C22.6599 3.4626 22.5147 3.25189 22.422 2.99446C22.2719 2.57702 22.0997 2.46719 20.8342 1.98232C17.9192 0.865489 17.2826 1.11215 17.2826 3.35874C17.2826 4.6727 17.4432 4.81516 19.6337 5.44596L21.466 5.97357L21.7803 5.63961L22.0945 5.30566L22.9446 5.91642C23.6615 6.43143 23.8343 6.63983 24.0471 7.24579C25.1483 10.3824 23.9082 15.3479 19.5838 25.1178C19.4493 25.4216 19.3491 25.4699 19.0141 25.3929C18.433 25.2594 18.191 25.5985 17.0521 28.1418C15.5315 31.5377 14.3042 33.9234 13.4596 35.1255C12.1372 37.0077 10.1011 38.5701 8.6334 38.8292C6.59851 39.1883 4.45228 37.3372 3.44814 34.3569C2.89375 32.7111 2.71637 31.2469 2.81606 29.1388C2.92187 26.903 2.96025 26.4967 3.28067 24.2222C3.43812 23.1051 3.56686 22.1117 3.56686 22.0149C3.56686 21.9182 3.38809 21.6873 3.16945 21.5019C2.83232 21.216 2.7876 21.1103 2.87415 20.8035C2.93017 20.6047 3.29324 18.8021 3.68097 16.7977C5.48488 7.47025 6.24282 4.9394 7.6499 3.54659C8.6349 2.57155 10.2013 2.27122 10.401 3.01915C10.4369 3.15366 10.6384 3.33919 10.8489 3.43146C11.4636 3.70114 14.2686 4.16729 14.5864 4.05266C15.1978 3.83217 15.5727 1.50193 15.105 0.829709C14.865 0.48482 14.5736 0.398846 12.8042 0.151028C11.1598 -0.0792294 10.977 -0.0643198 10.7081 0.322149ZM10.3669 1.43335C10.3667 1.86902 10.3404 1.89006 9.76179 1.91507C9.08752 1.94439 8.03083 2.31048 7.5275 2.689C7.34596 2.82566 7.03488 3.18596 6.83594 3.48993C6.33607 4.25392 5.411 6.24474 5.411 6.5565C5.411 6.69781 5.3158 7.08444 5.1995 7.41575C4.91182 8.2349 4.47072 10.0773 4.43937 10.5907C4.42531 10.8212 4.2742 11.4481 4.10362 11.9836C3.92681 12.5386 3.8232 13.0918 3.8625 13.2703C3.90053 13.4425 3.88486 13.673 3.82769 13.7825C3.77041 13.892 3.65572 14.317 3.57274 14.727C3.48964 15.137 3.35605 15.7706 3.27572 16.1351C2.85041 18.0646 2.85744 18.0159 2.70738 20.103C2.66842 20.6453 2.61598 21.1186 2.59073 21.1547C2.56561 21.1908 2.33048 21.1683 2.06838 21.1047C1.68906 21.0126 1.60654 20.933 1.6644 20.716C1.75776 20.3665 2.52181 16.3189 2.63857 15.5553C2.80373 14.4754 3.66506 10.72 4.17739 8.84633C4.61433 7.24777 5.4427 4.9008 6.08849 3.43129C6.51518 2.4604 6.64173 2.30038 7.35933 1.82495C8.24855 1.23589 8.866 1.02286 9.76202 0.996025C10.3485 0.9783 10.3671 0.991883 10.3669 1.43335ZM11.635 1.23291C11.635 1.4032 11.1303 2.30303 11.0348 2.30303C10.9478 2.30303 11.0218 1.56802 11.139 1.2677C11.1941 1.12656 11.635 1.09575 11.635 1.23291ZM12.2113 1.4138C12.2113 1.74345 11.6996 2.63433 11.5103 2.63433C11.2038 2.63433 11.2317 2.4869 11.6576 1.85543C12.0045 1.34108 12.2113 1.17609 12.2113 1.4138ZM13.2539 1.79182C13.1831 1.98183 13.0721 2.13737 13.0072 2.13737C12.8908 2.13737 12.9455 1.92468 13.1677 1.5122C13.3386 1.19497 13.4008 1.39707 13.2539 1.79182ZM12.7876 1.79679C12.7876 2.06664 12.2352 2.88911 12.143 2.75692C12.0947 2.68751 12.2038 2.40805 12.3853 2.13572C12.744 1.59751 12.7876 1.5609 12.7876 1.79679ZM18.7188 2.57685C18.602 2.6996 18.4645 2.79999 18.4132 2.79999C18.2459 2.79999 18.3153 2.48889 18.5193 2.32489C18.8037 2.09613 18.973 2.30965 18.7188 2.57685ZM14.2894 2.62506C14.1601 2.97227 13.9401 3.22721 13.9401 3.02991C13.9401 2.90203 14.2908 2.30303 14.3655 2.30303C14.3895 2.30303 14.3553 2.44797 14.2894 2.62506ZM13.5944 2.79999C13.5944 2.8911 13.5394 2.96564 13.4723 2.96564C13.4052 2.96564 13.3823 2.8911 13.4215 2.79999C13.4607 2.70888 13.5155 2.63433 13.5435 2.63433C13.5715 2.63433 13.5944 2.70888 13.5944 2.79999ZM18.781 2.95636C18.781 3.22621 18.2287 4.04868 18.1365 3.91649C18.0882 3.84708 18.1972 3.56762 18.3788 3.29529C18.7374 2.75708 18.781 2.72047 18.781 2.95636ZM19.4708 2.92423C19.4673 3.18795 18.7002 4.3394 18.6327 4.18236C18.5395 3.96585 19.1176 2.79999 19.3181 2.79999C19.4031 2.79999 19.4718 2.85598 19.4708 2.92423ZM19.982 3.18894C19.9133 3.4462 19.242 4.19561 19.242 4.01505C19.242 3.85006 19.84 2.96564 19.9516 2.96564C20.0011 2.96564 20.0147 3.06619 19.982 3.18894ZM20.7404 3.31649C20.7404 3.4076 20.6918 3.43891 20.6322 3.38607C20.5727 3.33322 20.482 3.38474 20.4305 3.50053C20.3791 3.61633 20.2106 3.86017 20.0561 4.04239C19.8424 4.29434 19.8671 4.20622 20.159 3.67464C20.5098 3.03588 20.7404 2.89375 20.7404 3.31649ZM21.6619 3.44057C21.6616 3.49822 21.532 3.76906 21.3739 4.04239C21.2158 4.31571 21.1181 4.40798 21.1567 4.24763C21.2093 4.02963 21.1809 3.98126 21.0447 4.05646C20.8801 4.14724 20.8791 4.10865 21.0346 3.66072C21.1621 3.29297 21.2659 3.18662 21.4346 3.2499C21.56 3.29711 21.6623 3.38276 21.6619 3.44057ZM22.7438 4.04487C23.3206 4.39125 24.3214 5.33382 24.6128 5.80494C24.7458 6.01996 24.9921 6.74054 25.1602 7.4063C25.707 9.57089 25.4986 12.5341 24.598 15.4009C24.3781 16.1009 24.1979 16.7389 24.1977 16.8186C24.1974 16.8982 24.042 17.2988 23.8524 17.7088C23.6628 18.1188 23.5074 18.5591 23.5071 18.6873C23.5066 18.947 22.2073 22.3729 21.875 22.9906C21.7581 23.208 21.6619 23.5061 21.6612 23.6532C21.6605 23.8003 21.398 24.4603 21.0778 25.1199L20.4956 26.3189L20.0401 25.985L19.5847 25.6512L20.0084 24.7031C21.556 21.2402 23.1191 17.2777 23.6734 15.4128C24.509 12.6012 24.8271 9.30419 24.4428 7.43827C24.254 6.52221 23.5974 5.60549 22.8401 5.20063C22.1421 4.82742 22.0788 4.73498 22.1687 4.22013C22.2565 3.71771 22.2184 3.7293 22.7438 4.04487ZM2.18376 22.3529C2.18376 22.4473 2.10146 22.7049 2.00096 22.9254C1.90033 23.146 1.85066 23.4021 1.89042 23.4947C1.9303 23.5871 1.87406 23.8578 1.76548 24.0959C1.60412 24.4497 1.59628 24.5539 1.72272 24.6662C1.84962 24.7788 1.84328 24.8784 1.6878 25.2195C1.54764 25.5268 1.53496 25.6532 1.63927 25.7035C1.74958 25.7569 1.7505 25.8948 1.64319 26.3371C1.38893 27.3861 1.3343 28.1449 1.51318 28.1449C1.60216 28.1449 1.72468 27.9075 1.78531 27.6175C1.84593 27.3273 1.97168 27.0548 2.06469 27.0118C2.20105 26.9489 2.1954 27.0178 2.03588 27.3678C1.92708 27.6065 1.83798 27.9494 1.83798 28.1297C1.83798 28.48 1.28266 30.7868 1.14343 31.0149C0.993824 31.2599 0.915219 29.7587 0.980109 27.8964C1.03659 26.2749 1.31401 22.9398 1.43826 22.3885C1.49428 22.1402 2.18376 22.1074 2.18376 22.3529ZM2.76005 22.4241C2.76005 22.5574 2.65263 22.7493 2.52135 22.8503C2.28818 23.0297 2.28714 23.0241 2.47697 22.6076C2.69919 22.1203 2.76005 22.0807 2.76005 22.4241ZM2.55063 23.7082C2.46799 23.827 2.41427 23.8368 2.41427 23.7331C2.41427 23.6388 2.44885 23.5121 2.49115 23.4515C2.53333 23.3907 2.59477 23.3796 2.6275 23.4266C2.66024 23.4737 2.62566 23.6004 2.55063 23.7082ZM2.36598 24.806C2.18664 25.3045 1.98044 25.5889 1.89135 25.4608C1.86576 25.4239 1.98136 25.1181 2.14825 24.7808C2.50198 24.0664 2.62692 24.0808 2.36598 24.806ZM2.06296 26.4152C1.85826 26.7695 1.79372 26.5853 1.96327 26.1302C2.05432 25.8857 2.1252 25.8218 2.15632 25.956C2.18341 26.0728 2.14134 26.2793 2.06296 26.4152ZM19.3606 26.7904L19.6201 27.0922L19.1338 27.7843C18.8663 28.1648 18.6152 28.4762 18.5756 28.4762C18.5361 28.4762 18.7054 28.1794 18.9518 27.8166C19.1982 27.4538 19.3642 27.1058 19.3205 27.043C19.2423 26.9305 19.0247 27.1692 18.178 28.2963C17.9415 28.6112 17.7221 28.8317 17.6907 28.7865C17.597 28.652 18.7804 26.4884 18.9477 26.4884C19.0322 26.4884 19.218 26.6242 19.3606 26.7904ZM19.9588 27.883C19.7524 28.534 19.0083 29.6315 18.5407 29.9742C18.1582 30.2548 18.204 30.1531 18.9651 29.0343C19.4773 28.2811 19.8183 27.6408 19.8183 27.4323C19.8183 27.1664 19.8501 27.1305 19.9535 27.279C20.055 27.4248 20.0562 27.5756 19.9588 27.883ZM17.9339 29.6958C17.4501 30.4381 16.7064 31.7416 16.7064 31.8473C16.7064 31.8938 16.809 31.9558 16.9346 31.9848C17.1083 32.0252 16.7157 32.6101 15.2921 34.4321C13.9083 36.2034 13.596 36.5483 14.0919 35.7573C14.8796 34.5012 16.7064 31.0405 16.7064 30.8046C16.7064 30.7149 16.8025 30.5674 16.92 30.477C17.0376 30.3865 17.3536 30.0486 17.6225 29.7257C18.2407 28.9834 18.4087 28.9674 17.9339 29.6958ZM1.88328 31.9549C1.87648 32.7294 1.86103 33.6612 1.84905 34.0256L1.82726 34.6882L1.53646 33.885C1.16867 32.869 1.16279 32.4332 1.49693 30.9401C1.81665 29.5107 1.90276 29.7367 1.88328 31.9549ZM17.6834 32.1244C16.9168 33.2431 16.7988 33.1751 17.5406 32.0424C17.8671 31.5438 18.16 31.1729 18.1913 31.2179C18.2228 31.263 17.9941 31.671 17.6834 32.1244ZM16.5854 33.5384C16.2653 34.0929 12.2742 39.1907 11.768 39.6918C11.4729 39.9838 11.076 40.2689 10.8858 40.3252C10.5617 40.4213 10.5798 40.3759 11.1739 39.6015C12.1392 38.3432 11.8104 38.4434 10.6661 39.7562C10.1079 40.3965 9.61783 40.8707 9.57691 40.8099C9.45416 40.627 10.8248 38.9395 11.453 38.5002C11.7749 38.2751 12.2199 37.9498 12.4418 37.7773C12.6637 37.6049 12.9837 37.3983 13.1529 37.3183C13.3222 37.2384 14.1431 36.297 14.977 35.2266C15.811 34.1561 16.5476 33.2802 16.614 33.2802C16.6857 33.2802 16.6742 33.3847 16.5854 33.5384ZM2.49806 34.5017C2.63269 34.9002 2.69931 35.2915 2.64606 35.3714C2.59269 35.4512 2.53172 35.7028 2.51051 35.9306C2.47386 36.3232 2.46141 36.3133 2.2702 35.7399C2.06619 35.128 1.99081 33.7771 2.16082 33.7771C2.21153 33.7771 2.36333 34.1031 2.49806 34.5017ZM16.2891 34.6468C15.8492 35.7173 13.3294 39.0903 12.9849 39.0697C12.908 39.0651 13.2852 38.4873 13.823 37.7859C14.3608 37.0844 15.1388 36.0459 15.5519 35.478C16.3253 34.4149 16.4354 34.2908 16.2891 34.6468ZM3.19573 36.1564C3.41691 36.623 3.43904 36.7849 3.33531 37.1768L3.21209 37.6425L3.03171 37.2722C2.82701 36.8523 2.67672 35.5986 2.83128 35.6005C2.88718 35.6011 3.05119 35.8513 3.19573 36.1564ZM4.22072 38.1522C4.1299 38.4923 3.72753 38.4931 3.63682 38.1533C3.59833 38.0092 3.56686 37.6566 3.56686 37.3696V36.848L3.92889 37.3685C4.15791 37.6976 4.26521 37.9855 4.22072 38.1522ZM4.84773 38.5209C4.93383 38.67 5.2259 38.9284 5.49664 39.0952L5.98891 39.3986L5.61754 40.4806C5.4133 41.0758 5.20907 41.5628 5.16354 41.5628C5.05266 41.5628 4.91977 40.9388 4.99388 40.7665C5.08978 40.5436 4.77662 39.4231 4.55255 39.1877C4.40825 39.0359 4.36952 38.8609 4.42496 38.6099C4.51994 38.1797 4.63658 38.1552 4.84773 38.5209ZM10.2519 39.3316C10.2519 39.4564 9.47537 40.4296 9.0934 40.7836C8.72192 41.128 8.06195 41.4296 8.06195 41.2552C8.06195 41.1898 8.31783 40.774 8.63052 40.3314C9.02379 39.7748 9.33487 39.4887 9.63904 39.404C10.2528 39.2334 10.2519 39.2336 10.2519 39.3316ZM6.79249 39.7357C7.03338 39.9545 6.86072 40.5429 6.04285 42.2915C5.37262 43.7241 5.18048 43.9 5.18048 43.0805C5.18048 42.7461 5.37273 42.3561 5.92655 41.5673C6.33687 40.9829 6.64681 40.4677 6.61546 40.4225C6.58399 40.3774 6.30137 40.7041 5.98729 41.1487C5.67321 41.5933 5.38991 41.919 5.35763 41.8728C5.32548 41.8264 5.47854 41.3836 5.69788 40.8888C5.91722 40.394 6.09794 39.896 6.09956 39.782C6.10301 39.54 6.54457 39.5104 6.79249 39.7357ZM8.63283 39.8649C8.62511 40.0408 7.42745 41.3972 7.2798 41.3972C7.21261 41.3972 6.99581 41.5928 6.79802 41.8318C6.60035 42.071 6.41502 42.2329 6.38632 42.1915C6.35751 42.1501 6.51887 41.7495 6.74489 41.3013C6.97091 40.8528 7.20281 40.3184 7.26021 40.1134C7.35092 39.79 7.44889 39.7406 8.00144 39.7406C8.35171 39.7406 8.63583 39.7965 8.63283 39.8649ZM6.95478 42.5153C6.91386 42.7658 6.71734 43.2318 6.51783 43.5507C5.87157 44.584 5.57928 45.1194 5.78559 44.8919C6.0493 44.6014 6.04008 44.7284 5.74537 45.4462C5.4714 46.1136 5.35314 46.2059 5.44927 45.6773C5.48511 45.4804 5.46091 45.1755 5.39544 44.9998C5.21298 44.5098 5.46817 43.8258 6.18427 42.8852C6.52993 42.4312 6.8613 42.0598 6.92089 42.0598C6.98036 42.0598 6.99558 42.2649 6.95478 42.5153ZM34.9638 42.8837C34.831 42.9609 34.5295 43.3476 34.2939 43.743C33.9226 44.3658 33.8747 44.5391 33.9353 45.0415C34.0246 45.7822 34.5732 46.5324 35.0255 46.5324C35.6339 46.5324 36.4156 45.2734 36.4156 44.2934C36.4156 43.6398 36.2212 43.2455 35.7635 42.9705C35.2979 42.6911 35.2959 42.6909 34.9638 42.8837ZM6.84655 44.8519C6.73751 45.2324 6.73463 46.1814 6.84056 46.8293C6.91697 47.2961 6.86107 47.5411 6.4534 48.5272C6.19142 49.1612 5.93059 49.6798 5.87377 49.6798C5.69431 49.6798 5.81187 48.9654 6.14128 48.0544C6.31636 47.5704 6.51057 46.9815 6.57281 46.7459C6.80367 45.8733 6.37168 46.6754 6.04169 47.7319C5.77787 48.5771 5.70526 48.7023 5.63506 48.4334C5.55208 48.1152 5.7056 47.6232 6.45536 45.8044C6.63263 45.3745 6.66778 45.1848 6.56105 45.236C6.47288 45.2783 6.24282 45.7351 6.04999 46.2513C5.85705 46.7675 5.6603 47.191 5.6127 47.1925C5.35187 47.2002 5.65108 46.1478 6.43358 44.3054L6.85173 43.3207L6.88827 43.95C6.90832 44.2963 6.88954 44.7021 6.84655 44.8519ZM35.324 43.5429C35.2155 43.7952 34.5713 44.4154 34.573 44.2659C34.5738 44.1914 34.7424 43.9673 34.9475 43.768C35.3772 43.3505 35.4169 43.3269 35.324 43.5429ZM6.90936 48.7378C6.90936 48.9485 6.78661 49.4888 6.63655 49.9387C6.21827 51.1929 6.15257 51.6988 6.51863 50.8463C6.95881 49.8213 6.98509 50.2223 6.56485 51.554C6.1913 52.7384 6.03075 52.9707 6.14289 52.1646C6.18093 51.8913 6.1671 51.6677 6.11212 51.6677C6.05726 51.6677 5.97646 51.4627 5.93266 51.2121C5.87146 50.8614 5.95479 50.4799 6.29457 49.5556C6.75618 48.2998 6.90936 48.096 6.90936 48.7378ZM26.4337 49.9362C26.2621 50.2594 26.0164 50.605 25.8875 50.7042C25.7421 50.816 25.8253 50.5954 26.1071 50.1218C26.6414 49.2243 26.8851 49.0858 26.4337 49.9362ZM65.6771 49.7905C64.9879 50.5649 64.7212 51.5255 64.9828 52.2912C65.0369 52.4494 65.175 52.859 65.2897 53.2016L65.4984 53.8245L64.9564 56.0177C64.2984 58.6809 63.9356 59.7532 63.3187 60.8576C63.0598 61.3213 62.7579 61.8981 62.6479 62.1394C62.373 62.7424 60.8405 64.3742 60.1179 64.8336C59.6077 65.1578 59.4672 65.1848 59.1249 65.0241C58.8882 64.9131 58.615 64.6015 58.4527 64.2573C58.1487 63.6126 58.1537 63.1423 58.4956 60.2468C58.5893 59.4534 58.6966 58.4843 58.734 58.0933C58.7713 57.7026 58.9578 56.7863 59.1483 56.0575C59.3387 55.3286 59.6206 54.2528 59.7749 53.6668C60.1312 52.3116 60.1006 51.5216 59.6782 51.1823C59.2729 50.857 58.8841 51.1386 58.6137 51.9534L58.4194 52.5393L58.1559 52.1835C58.0109 51.9879 57.5916 51.6758 57.2241 51.4901C56.6583 51.2043 56.4697 51.1791 55.9948 51.3254C55.2483 51.5555 54.1183 52.3046 53.2727 53.13C51.723 54.6425 49.9986 57.9138 49.3974 60.4817C48.5495 64.1037 49.1568 66.071 51.381 66.9064C52.7535 67.4219 54.9211 65.7172 56.4761 62.8994C56.7123 62.4715 56.9374 62.1672 56.9763 62.2231C57.0151 62.2789 57.0474 62.6664 57.0481 63.084C57.0498 64.2457 57.4994 65.4849 58.0713 65.9044C58.7695 66.4163 59.6388 66.3621 60.5812 65.7478C61.5345 65.1266 62.7741 63.371 63.672 61.3706C64.315 59.9382 64.9998 57.9429 64.9998 57.502C64.9998 57.365 65.1396 56.5287 65.3105 55.6435L65.6212 54.0342L66.1273 54.3559C66.627 54.6736 68.8074 55.0775 69.1129 54.909C69.3583 54.7737 69.2893 55.0955 68.8755 56.0185C67.3296 59.465 66.5797 61.7799 66.4433 63.5276C66.2713 65.7283 66.8301 66.7661 68.2489 66.8814C69.4814 66.9815 70.6462 66.2846 72.0017 64.6361C72.6702 63.8233 72.8206 63.3571 72.2322 63.9215C70.8116 65.284 69.135 65.933 68.5233 65.3571C67.9561 64.8228 67.8964 62.78 68.4164 61.6941C68.5024 61.5146 68.5728 61.1854 68.5728 60.9629C68.5728 60.2531 69.7176 57.4726 70.7144 55.7621C70.9152 55.4174 71.1081 54.8823 71.1431 54.573C71.3064 53.1269 70.9184 52.8521 69.3628 53.3121C68.7535 53.4923 68.0542 53.6562 67.8088 53.6764C67.3248 53.7163 66.5538 53.2745 66.4538 52.9001C66.4194 52.7712 66.5953 52.3289 66.8475 51.9102C67.0982 51.4939 67.3554 51.0135 67.419 50.8427C67.5466 50.5 67.4628 50.0111 67.2765 50.0111C67.211 50.0111 67.0997 49.8977 67.0291 49.7588C66.9586 49.6202 66.7194 49.465 66.4978 49.414C66.1719 49.3391 66.0147 49.4111 65.6771 49.7905ZM32.8674 51.2638C32.6322 51.5005 31.9643 53.3205 31.7467 54.3176C31.697 54.5451 31.505 55.1333 31.3201 55.6246C31.1351 56.1161 30.9603 56.7809 30.9317 57.1021C30.9031 57.4233 30.8332 57.7668 30.7761 57.8657C30.6585 58.0697 30.1934 60.4402 30.1232 61.1927C29.8631 63.9818 29.8513 64.4847 30.0276 65.235C30.5053 67.2664 31.8797 68.0178 33.3314 67.0413C33.6953 66.7964 34.2917 66.3122 34.6569 65.9653C35.7264 64.9491 37.9203 61.8096 37.1435 62.4073C37.0269 62.4967 36.8286 62.7351 36.7025 62.9367C35.867 64.2732 32.9923 66.6783 32.4599 66.4863C32.0261 66.3298 31.7288 65.7588 31.592 64.8192C31.4916 64.1289 31.5094 63.6836 31.6887 62.4023C31.8096 61.5386 31.9607 60.6522 32.0246 60.4325C32.2115 59.789 32.9578 56.2364 32.9578 55.9899C32.9578 55.866 33.1912 55.0564 33.4765 54.1909C34.1329 52.1992 34.1507 51.6344 33.5706 51.1956C33.2431 50.9479 33.1746 50.9545 32.8674 51.2638ZM43.8498 51.3165C43.016 51.6635 42.8279 51.8051 41.7175 52.9218C39.8135 54.8364 38.3833 57.8545 37.9588 60.8531C37.6619 62.9498 37.9957 64.5538 39.0078 65.8946C41.0242 68.5661 43.9388 67.5974 47.1058 63.2033C47.4387 62.7414 47.711 62.3054 47.711 62.2343C47.711 62.1631 47.2311 62.6307 46.6448 63.2733C45.4076 64.6292 43.7776 65.8441 42.8701 66.0868C41.5865 66.43 40.5328 65.8028 40.0386 64.4014C39.4174 62.6394 39.5947 60.4951 40.589 57.7478C41.4039 55.4959 42.8807 53.2657 44.0699 52.4906C44.5903 52.1515 44.9557 52.0111 45.1583 52.072C45.3261 52.1227 45.5337 52.099 45.6196 52.0197C45.711 51.935 45.9083 51.9471 46.0957 52.0488C46.384 52.2052 46.41 52.2836 46.3582 52.8395C46.3087 53.3694 46.3433 53.4968 46.6031 53.7413C47.1838 54.2883 47.8713 53.4829 47.656 52.5079C47.3781 51.2497 45.4558 50.6481 43.8498 51.3165ZM7.06992 51.5984C7.19186 52.0553 7.14679 52.5574 6.89968 53.4922C6.76748 53.9919 6.63182 54.5315 6.59805 54.6908C6.49616 55.1725 6.35773 55.0187 6.27728 54.3338C6.20386 53.7088 6.33353 52.9031 6.68645 51.7919C6.85035 51.2759 6.96792 51.2166 7.06992 51.5984ZM25.466 51.5592C25.466 51.5906 25.3493 51.7583 25.2067 51.9319L24.9474 52.2474L25.1669 51.8747C25.3732 51.5245 25.466 51.4266 25.466 51.5592ZM78.5053 51.6706C77.1911 52.0649 75.8949 53.3111 74.9761 55.0635C73.8363 57.2376 73.4041 58.9678 73.4503 61.1712C73.5003 63.5495 74.2992 65.3021 75.8145 66.3574C76.8872 67.1045 78.5209 67.0507 79.8105 66.2256C80.5567 65.748 81.7924 64.577 82.2255 63.9368C82.7906 63.1014 82.6753 63.0822 81.8459 63.8733C80.5656 65.0948 78.3315 66.052 77.4361 65.7629C76.183 65.3582 75.3741 64.0227 75.0416 61.8096C74.8508 60.54 74.8784 60.5099 76.3329 60.3936C79.8529 60.1118 81.8703 58.204 81.8812 55.1464C81.8862 53.7751 81.6363 53.1312 80.7636 52.2655C80.0501 51.558 79.4276 51.394 78.5053 51.6706ZM33.1884 52.2474C33.0399 52.4746 32.8926 52.623 32.8609 52.5774C32.8292 52.5319 32.9246 52.3089 33.0731 52.0818C33.2215 51.8547 33.3689 51.7063 33.4005 51.7518C33.4322 51.7974 33.3368 52.0203 33.1884 52.2474ZM59.3361 51.9847C59.1863 52.1592 59.0418 52.2701 59.0147 52.2315C58.9555 52.1469 59.3682 51.6804 59.509 51.673C59.5635 51.67 59.4857 51.8103 59.3361 51.9847ZM57.0806 52.4176C57.9935 52.6637 58.3548 54.2149 57.8433 55.6927C57.5794 56.4555 57.3305 57.9318 57.212 59.4358C57.1478 60.2526 57.0505 60.5619 56.5874 61.4218C55.8845 62.7272 54.705 64.2795 53.861 65.0099C53.3315 65.4681 53.0827 65.5809 52.6163 65.5746C51.8836 65.5646 51.3118 65.1676 50.966 64.4289C50.7378 63.9412 50.7053 63.7037 50.7499 62.8487C50.8475 60.9754 51.4564 58.7392 52.5088 56.3888C53.319 54.5792 55.0028 52.7108 56.1102 52.3924C56.3084 52.3354 56.4714 52.205 56.4724 52.1025C56.4736 51.9693 56.4984 51.9708 56.5591 52.108C56.6058 52.2135 56.8405 52.3528 57.0806 52.4176ZM43.2735 52.4305C42.8551 52.894 42.575 53.0308 42.9277 52.5995C43.1179 52.3669 43.3254 52.1762 43.3888 52.1759C43.4521 52.1754 43.4003 52.29 43.2735 52.4305ZM80.4444 52.8272C80.4444 52.9183 80.3926 52.9929 80.3292 52.9929C80.2658 52.9929 80.2139 52.9183 80.2139 52.8272C80.2139 52.7361 80.2658 52.6616 80.3292 52.6616C80.3926 52.6616 80.4444 52.7361 80.4444 52.8272ZM80.1604 53.3272C80.8081 53.7776 81.0713 54.497 80.9967 55.6122C80.9269 56.6571 80.587 57.4067 79.8594 58.1203C78.9132 59.0483 77.901 59.4789 76.4328 59.5781L75.13 59.6661L75.2104 59.187C75.4973 57.4784 76.2188 55.7482 77.16 54.5119C78.2972 53.0182 79.2026 52.6608 80.1604 53.3272ZM7.36325 54.1763C7.46618 54.8667 7.45915 55.097 7.32591 55.3894C7.23543 55.5878 7.09654 56.0616 7.01713 56.4421C6.93783 56.8228 6.83548 57.1342 6.78984 57.1342C6.7442 57.1342 6.65453 56.8379 6.59056 56.4756C6.4889 55.8999 6.51817 55.6596 6.82234 54.5706C7.0139 53.8851 7.18529 53.3242 7.20327 53.3242C7.22125 53.3242 7.29329 53.7077 7.36325 54.1763ZM59.1216 53.547C59.1216 53.5785 59.0048 53.7461 58.8622 53.9197L58.6029 54.2353L58.8225 53.8626C59.0288 53.5124 59.1216 53.4145 59.1216 53.547ZM70.8203 53.6555C70.7811 53.7466 70.6972 53.8211 70.6338 53.8211C70.5704 53.8211 70.5506 53.7466 70.5898 53.6555C70.629 53.5644 70.7129 53.4898 70.7763 53.4898C70.8397 53.4898 70.8595 53.5644 70.8203 53.6555ZM24.3134 53.9076C24.3134 54.0837 23.3576 55.4777 23.2369 55.4777C23.1681 55.4777 23.3673 55.105 23.6795 54.6494C24.2457 53.8235 24.3134 53.7439 24.3134 53.9076ZM68.9163 54.0736C68.836 54.2124 68.7405 54.283 68.7037 54.2303C68.6671 54.1776 68.7134 54.0652 68.8066 53.9803C69.0506 53.7585 69.0826 53.7857 68.9163 54.0736ZM53.1281 54.2984C53.1281 54.3787 52.9337 54.6516 52.6959 54.9049L52.2637 55.3654L52.6609 54.7589C53.084 54.113 53.1281 54.0695 53.1281 54.2984ZM32.1475 55.4363C32.1454 55.5047 32.0028 55.7036 31.8305 55.8786L31.5171 56.1964L31.7965 55.7543C32.0902 55.2895 32.1533 55.2323 32.1475 55.4363ZM75.2578 55.7059C75.2578 55.7402 75.1671 55.8708 75.0561 55.9958C74.8733 56.2017 74.8692 56.196 75.0125 55.9332C75.1632 55.6572 75.2578 55.5696 75.2578 55.7059ZM7.66316 56.1907C7.72459 56.5422 7.34262 58.3592 7.14023 58.6786C7.09274 58.7536 7.01897 58.6152 6.97633 58.371C6.89219 57.8891 7.3115 55.809 7.49281 55.809C7.54986 55.809 7.6265 55.9808 7.66316 56.1907ZM69.7915 56.2685C69.5924 56.5418 69.5892 56.5374 69.7212 56.1675C69.7972 55.9548 69.8909 55.826 69.9295 55.8815C69.9682 55.937 69.9061 56.1111 69.7915 56.2685ZM31.6394 56.9321C31.4599 57.1799 31.3538 57.2709 31.4038 57.1342C31.556 56.7176 31.8387 56.2987 31.9041 56.3927C31.9381 56.4416 31.819 56.6843 31.6394 56.9321ZM22.6352 57.1756C22.5166 57.3805 22.2198 57.8545 21.9756 58.2287C21.7314 58.6027 21.5201 59.0218 21.5061 59.1598C21.4754 59.4602 20.2734 61.4879 20.1939 61.3734C20.1246 61.274 21.6711 58.2641 22.2232 57.4241C22.6613 56.7572 22.9929 56.5572 22.6352 57.1756ZM89.7338 58.3766C89.6203 59.9785 89.4847 60.905 89.2085 61.966C88.6324 64.1788 86.9866 67.3373 85.322 69.4245C83.0531 72.2696 82.1338 73.1709 79.891 74.7494C76.5468 77.1032 73.4217 78.4836 69.2643 79.4432C66.3772 80.1096 56.6829 79.6158 54.1654 78.6741C53.9436 78.5911 53.4249 78.4821 53.0129 78.4319C52.6008 78.3815 52.0825 78.2653 51.8611 78.1735C51.6396 78.0817 51.2506 78.006 50.9966 78.0055C50.7426 78.005 50.3533 77.9344 50.1314 77.8488C49.9095 77.763 49.2093 77.6127 48.5754 77.5147C47.9415 77.4168 47.0597 77.2319 46.616 77.1039C46.1723 76.9756 45.6277 76.8314 45.4058 76.783C45.1839 76.7346 44.4578 76.5476 43.7922 76.3672C41.5677 75.7644 38.5002 75.1659 36.3003 74.9058C34.8986 74.74 29.2942 74.8245 28.4627 75.0239C28.1141 75.1076 27.5954 75.2207 27.3102 75.2755C26.1012 75.5078 23.3394 76.783 21.9506 77.7501C19.5023 79.4551 18.1885 81.7587 18.3534 84.0568C18.4281 85.096 18.6331 85.7107 19.1451 86.4301C19.9157 87.513 21.2217 88.3416 22.988 88.8685C23.8048 89.1122 24.5398 89.1791 26.4457 89.1831C28.6485 89.1876 29.0163 89.1457 30.5374 88.7153C31.4566 88.4554 32.5949 88.052 33.0669 87.819C33.7665 87.4737 33.9344 87.4386 33.975 87.6291C34.0023 87.7577 34.2696 88.1983 34.5688 88.6083C36.4007 91.1183 39.4162 90.0856 40.1584 86.6942C40.3347 85.8889 40.345 85.6249 40.2294 84.8819C39.8533 82.4667 38.6112 81.1998 36.7696 81.353C36.0337 81.4143 35.7631 81.5137 35.4049 81.8545C34.9123 82.3229 34.0473 84.2167 33.9252 85.094C33.7672 86.2299 32.6948 87.0493 30.7679 87.5069C29.3263 87.8491 28.3565 88.0901 28.0017 88.1945C27.8432 88.2411 27.1171 88.3255 26.3881 88.3822C24.3391 88.5414 22.681 88.062 21.0686 86.8441C19.4534 85.6242 18.9731 83.9834 19.6555 82.0156C20.682 79.0549 24.8541 76.3718 29.5241 75.6691C31.1008 75.4319 35.1601 75.5651 37.3377 75.9256C38.1935 76.0674 39.3605 76.2584 39.931 76.3503C41.5303 76.6079 41.8588 76.6786 42.2938 76.8589C42.8134 77.0739 45.6577 77.7226 48.4601 78.2651C48.7137 78.3143 49.0013 78.3882 49.0992 78.4293C49.5199 78.6063 53.4606 79.366 56.326 79.8224C56.8487 79.9057 57.3272 80.019 57.3896 80.0743C57.6049 80.2657 62.1834 80.6522 64.1929 80.6487C66.2046 80.6452 66.9279 80.5755 70.051 80.0843C72.2955 79.7313 75.816 78.3602 77.9887 76.9925C81.9924 74.4726 84.395 72.2038 86.6502 68.8134C88.8597 65.4916 90.0307 62.1086 89.9994 59.137C89.9812 57.4066 89.8327 56.9815 89.7338 58.3766ZM7.72885 58.3418C7.54305 58.6089 7.49718 58.4298 7.63192 57.9625C7.73531 57.6038 7.75813 57.5896 7.80216 57.8558C7.83017 58.0249 7.7972 58.2436 7.72885 58.3418ZM31.4248 58.578C31.2033 59.0076 30.9593 59.3893 30.8825 59.426C30.8057 59.4628 30.9412 59.1113 31.1834 58.645C31.4257 58.1785 31.6697 57.7968 31.7256 57.7968C31.7816 57.7968 31.6462 58.1483 31.4248 58.578ZM80.2139 58.3564C80.2139 58.3907 80.1232 58.5212 80.0122 58.6463C79.8294 58.8522 79.8254 58.8464 79.9686 58.5837C80.1193 58.3077 80.2139 58.2201 80.2139 58.3564ZM8.11958 59.4535C8.30595 60.2596 8.304 60.3045 8.05077 61.1101C7.76873 62.0071 7.60092 62.1684 7.60092 61.5431C7.60092 61.3257 7.52876 60.9012 7.44048 60.5995C7.29548 60.1037 7.3032 59.9828 7.52104 59.3381C7.65359 58.946 7.79951 58.6251 7.84515 58.6251C7.89079 58.6251 8.01435 58.998 8.11958 59.4535ZM21.7777 59.122C21.7777 59.2132 21.7228 59.2877 21.6557 59.2877C21.5886 59.2877 21.5657 59.2132 21.6049 59.122C21.644 59.0309 21.6989 58.9564 21.7269 58.9564C21.7549 58.9564 21.7777 59.0309 21.7777 59.122ZM74.2205 59.1792C74.2205 59.2107 74.1037 59.3783 73.9611 59.5519L73.7018 59.8675L73.9214 59.4948C74.1277 59.1446 74.2205 59.0467 74.2205 59.1792ZM50.5348 59.707C50.3446 59.9309 50.1387 60.1146 50.077 60.1151C49.9671 60.116 50.7099 59.3061 50.8229 59.3018C50.8546 59.3006 50.725 59.483 50.5348 59.707ZM50.6503 60.4466C50.6113 60.5374 50.5592 60.7622 50.5346 60.9461C50.4823 61.3357 49.6946 62.7664 49.5323 62.7664C49.4715 62.7664 49.6327 62.4123 49.8902 61.9796C50.1478 61.5469 50.3105 61.1694 50.252 61.1409C50.1934 61.1124 50.2554 60.9075 50.3898 60.6853C50.6375 60.2758 50.7798 60.1455 50.6503 60.4466ZM21.0977 60.9131C20.9411 61.3339 19.9178 62.6334 19.836 62.5156C19.8019 62.4666 20.0792 61.983 20.4523 61.4412C21.1303 60.4564 21.3281 60.2945 21.0977 60.9131ZM8.58257 61.7889C8.66014 62.4487 8.47469 63.847 8.28751 64.0133C8.23876 64.0565 8.11912 63.7554 8.02173 63.3442C7.87258 62.7152 7.86809 62.5115 7.99383 62.0602C8.07601 61.7654 8.1764 61.3888 8.21697 61.2237C8.32797 60.7723 8.49302 61.0277 8.58257 61.7889ZM31.4595 60.9961C31.4595 61.0246 31.291 61.2669 31.0849 61.5345L30.7103 62.021L31.0488 61.4826C31.3644 60.9808 31.4595 60.868 31.4595 60.9961ZM38.6933 61.4429C38.6123 61.6292 38.5296 61.6936 38.5054 61.5893C38.4816 61.4867 38.5334 61.3382 38.6203 61.259C38.8472 61.0522 38.8548 61.0713 38.6933 61.4429ZM67.6507 62.6634C67.6507 62.6977 67.5599 62.8282 67.449 62.9533C67.2662 63.1592 67.2622 63.1534 67.4054 62.8907C67.5561 62.6147 67.6507 62.527 67.6507 62.6634ZM8.98379 64.205C8.76122 65.391 8.69138 65.5376 8.54108 65.1343C8.44726 64.8821 8.46259 64.5641 8.60286 63.8558C8.76826 63.0197 8.80894 62.9407 8.96143 63.16C9.10908 63.3722 9.1123 63.5201 8.98379 64.205ZM19.8217 63.5067C19.6746 63.7317 19.5152 63.8811 19.4674 63.8385C19.3635 63.7463 18.6658 64.8538 18.6658 65.1109C18.6658 65.2098 18.8507 65.0879 19.0768 64.8401C19.6012 64.2651 19.7741 64.4682 19.2623 65.0581C19.0516 65.3009 18.6683 65.7811 18.4103 66.125C18.1525 66.4688 17.9244 66.7259 17.9037 66.6959C17.8594 66.6324 18.89 64.0875 19.1241 63.682C19.2118 63.5302 19.3761 63.4408 19.489 63.4832C19.6021 63.5258 19.7547 63.4564 19.8283 63.3291C19.9017 63.2019 19.9904 63.0977 20.0255 63.0977C20.0604 63.0977 19.9688 63.2818 19.8217 63.5067ZM50.2677 63.7963C50.1851 63.9151 50.1314 63.9248 50.1314 63.8211C50.1314 63.6 50.2677 63.404 50.3446 63.5147C50.3773 63.5617 50.3428 63.6884 50.2677 63.7963ZM57.6443 63.7963C57.5617 63.9151 57.5079 63.9248 57.5079 63.8211C57.5079 63.6 57.6443 63.404 57.7212 63.5147C57.7539 63.5617 57.7193 63.6884 57.6443 63.7963ZM9.26375 65.372C9.18238 66.104 9.03543 66.54 8.92409 66.38C8.88432 66.3227 8.9446 65.8999 9.05813 65.4406C9.29891 64.4662 9.36714 64.4435 9.26375 65.372ZM50.0161 64.993C50.0161 65.0332 49.9643 65.1121 49.9009 65.1684C49.8375 65.2247 49.7856 65.1917 49.7856 65.0953C49.7856 64.9989 49.8375 64.9199 49.9009 64.9199C49.9643 64.9199 50.0161 64.9527 50.0161 64.993ZM9.78714 66.2325C9.90482 66.6405 9.89549 66.8683 9.73182 67.5761C9.52205 68.4841 9.43918 68.4849 9.22883 67.5813C9.12095 67.1178 9.13144 66.8804 9.28554 66.3008C9.49427 65.5151 9.57714 65.5038 9.78714 66.2325ZM50.8229 65.6556C50.8229 65.6958 50.7711 65.7747 50.7077 65.831C50.6443 65.8873 50.5924 65.8544 50.5924 65.7579C50.5924 65.6615 50.6443 65.5825 50.7077 65.5825C50.7711 65.5825 50.8229 65.6153 50.8229 65.6556ZM68.5152 66.0795C68.476 66.1706 68.3921 66.2451 68.3287 66.2451C68.2653 66.2451 68.2454 66.1706 68.2846 66.0795C68.3238 65.9884 68.4077 65.9138 68.4711 65.9138C68.5345 65.9138 68.5543 65.9884 68.5152 66.0795ZM18.4494 66.8663C18.2867 67.2982 17.0318 69.2529 16.9723 69.1673C16.8376 68.9739 17.4506 67.6924 17.8516 67.3285C18.0986 67.1045 18.3339 66.8436 18.3747 66.7489C18.5004 66.4565 18.5652 66.5587 18.4494 66.8663ZM10.2778 67.9953C10.3833 68.5288 10.3064 69.6654 10.1386 70.0525C10.0551 70.2452 9.99219 70.1608 9.84708 69.6621C9.68549 69.1061 9.68318 68.9915 9.82875 68.7536C9.9356 68.5789 9.97386 68.2812 9.93548 67.922C9.85953 67.2125 10.1346 67.2714 10.2778 67.9953ZM18.0474 68.4705C17.8578 68.8866 17.3979 69.3438 17.3979 69.1164C17.3979 68.9383 18.1218 67.8931 18.1836 67.9818C18.2124 68.0231 18.1511 68.2431 18.0474 68.4705ZM10.8129 69.3516C10.9866 69.8183 10.8051 71.546 10.5823 71.546C10.352 71.546 10.2612 70.7294 10.3989 69.896C10.5458 69.0076 10.6391 68.8848 10.8129 69.3516ZM16.9803 70.7714C16.7346 71.1652 16.3336 71.8409 16.0894 72.2728C15.8451 72.7046 15.621 73.0232 15.5913 72.9804C15.5617 72.9379 15.7346 72.3834 15.9756 71.7483C16.4067 70.6126 16.7839 70.1002 17.2108 70.0702C17.3836 70.0581 17.3371 70.1998 16.9803 70.7714ZM11.5108 71.245C11.6594 71.6239 11.6506 71.7119 11.4166 72.1843C11.2744 72.471 11.1134 72.7056 11.0586 72.7056C10.8626 72.7056 10.8048 71.9844 10.9499 71.3522C11.113 70.6422 11.263 70.6136 11.5108 71.245ZM17.0521 71.6885C17.0521 71.9247 16.4823 73.0765 16.0163 73.7823C15.7756 74.1468 15.492 74.7059 15.3858 75.0247C15.2034 75.5726 15.2215 75.559 15.7146 74.7763C16.0262 74.2818 16.2383 74.052 16.2409 74.2063C16.247 74.5636 15.4984 76.3274 15.0865 76.9266L14.747 77.4204L14.7506 77.0094C14.7526 76.7833 14.8304 76.4537 14.9235 76.2769C15.1407 75.8643 15.1392 75.6721 14.9198 75.793C14.6954 75.9168 14.7019 75.8036 14.9611 75.0595C15.0789 74.7216 15.2096 74.2401 15.2514 73.9894C15.3011 73.6922 15.4032 73.5339 15.5449 73.5339C15.6714 73.5339 15.9953 73.1192 16.3207 72.5406C16.849 71.6009 17.0521 71.3645 17.0521 71.6885ZM11.6961 73.1877C11.5889 73.6515 11.4571 74.0308 11.4032 74.0308C11.2104 74.0308 11.2355 73.2741 11.4489 72.6536C11.7666 71.7304 11.9441 72.1141 11.6961 73.1877ZM12.2675 73.3058C12.4184 73.6366 12.4374 73.8243 12.3474 74.0926C12.2824 74.2864 12.1982 74.6499 12.1604 74.9005C12.1225 75.1511 12.0347 75.3561 11.9651 75.3561C11.8915 75.3561 11.8663 75.2037 11.9049 74.992C11.9413 74.7917 11.9137 74.5285 11.8435 74.4069C11.75 74.245 11.7525 74.0105 11.8529 73.5286C11.9283 73.1671 12.0078 72.8713 12.0297 72.8713C12.0516 72.8713 12.1586 73.0667 12.2675 73.3058ZM12.7664 74.8261C12.7877 75.0337 12.6799 75.3718 12.507 75.6396C12.1782 76.1495 12.1418 76.0021 12.3546 75.0218C12.506 74.3249 12.7053 74.2301 12.7664 74.8261ZM13.1775 75.9178C13.2202 76.1628 13.1426 76.6523 12.9736 77.2016L12.7004 78.0893L12.5135 77.4479C12.2793 76.6445 12.2725 76.7315 12.6205 76.0757C12.9694 75.4183 13.0846 75.3857 13.1775 75.9178ZM13.9534 76.6546C13.5381 77.4928 13.3974 77.5818 13.3422 77.0407C13.3036 76.6629 13.3324 76.5781 13.4807 76.6339C13.5838 76.6727 13.7357 76.5874 13.8182 76.4444C14.0816 75.9882 14.1957 76.1656 13.9534 76.6546ZM15.2127 77.6656C15.0748 77.9442 14.9104 78.1722 14.8476 78.1722C14.7113 78.1722 14.8108 77.8947 15.1295 77.386C15.4568 76.8635 15.5144 77.0568 15.2127 77.6656ZM14.2859 77.7799C14.2859 77.9649 13.8005 79.0205 13.7492 78.9468C13.6761 78.8417 14.0824 77.6752 14.192 77.6752C14.2436 77.6752 14.2859 77.7222 14.2859 77.7799ZM13.4573 78.7299C13.1673 79.5557 13.0814 79.6422 12.969 79.2211C12.9202 79.0387 13.0211 78.7579 13.2657 78.3953C13.4695 78.0931 13.6559 77.8741 13.6799 77.9086C13.704 77.9432 13.6038 78.3128 13.4573 78.7299ZM14.5307 80.3699C14.4169 80.5322 14.4037 80.5132 14.4662 80.2771C14.5095 80.1138 14.574 80.0218 14.6095 80.0729C14.645 80.1237 14.6096 80.2574 14.5307 80.3699ZM13.9401 80.4913C13.8723 80.6735 13.7909 80.8226 13.7592 80.8226C13.7275 80.8226 13.757 80.6735 13.8249 80.4913C13.8928 80.3091 13.9741 80.16 14.0058 80.16C14.0375 80.16 14.008 80.3091 13.9401 80.4913ZM19.3573 81.5583C19.3573 81.5985 19.3054 81.6774 19.242 81.7337C19.1787 81.79 19.1268 81.7571 19.1268 81.6607C19.1268 81.5642 19.1787 81.4852 19.242 81.4852C19.3054 81.4852 19.3573 81.518 19.3573 81.5583ZM37.9928 82.801C38.5654 83.1747 39.0637 84.165 39.1377 85.0762C39.2144 86.0221 38.7042 87.2526 38.0336 87.7386C37.0767 88.4321 36.0174 88.145 35.4269 87.0323C34.9598 86.1522 34.8929 84.6368 35.2844 83.8083C35.9009 82.5042 36.9435 82.1164 37.9928 82.801ZM34.7363 84.0943C34.5007 84.8495 34.5558 85.8697 34.8815 86.7861C35.1522 87.5476 35.3095 87.7742 35.8393 88.166C36.3949 88.5768 36.5679 88.6259 37.2383 88.5622C38.214 88.4695 38.8713 87.8819 39.3232 86.6982C39.6525 85.8358 39.754 85.9189 39.4875 86.8328C39.1019 88.1549 38.0004 89.2659 37.0718 89.2693C35.1992 89.2762 34.0337 87.2468 34.4562 84.7153C34.5399 84.2142 34.6574 83.8044 34.7175 83.8044C34.779 83.8044 34.7872 83.9308 34.7363 84.0943ZM39.7285 85.0324C39.7681 85.5373 39.7444 85.7922 39.6578 85.7922C39.5863 85.7922 39.5269 85.55 39.526 85.2538C39.5252 84.9576 39.4922 84.5291 39.4527 84.3013C39.3962 83.9752 39.4115 83.9281 39.5249 84.0798C39.6041 84.1859 39.6957 84.6144 39.7285 85.0324Z" fill="#3DFED8"/>
</svg>
